<?xml version="1.0" encoding="UTF-8"?>
<svg id="Calque_2" data-name="Calque 2" xmlns="http://www.w3.org/2000/svg" viewBox="0 0 121 106.77">
  <defs>
    <style>
      .cls-1 {
        fill: #a05a2c;
      }

      .cls-1, .cls-2 {
        stroke-width: 0px;
      }

      .cls-2 {
        fill: #263c5c;
      }
    </style>
  </defs>
  <g id="Calque_1-2" data-name="Calque 1">
    <path class="cls-2" d="m60.44,75.48h1.41c4.97,0,8.51-1.03,10.64-3.1,2.12-2.07,3.35-5.7,3.68-10.89.44-8.44,1.23-14.38,2.36-17.8,1.13-3.42,3.44-6.82,6.91-10.18,2.91-2.83,6.37-4.98,10.36-6.45-2.98-5.59-7.11-10.52-12.39-14.78C73.21,4.09,59.1,0,41.09,0H0v106.02h31.53V30.45h10.64c18.07,0,27.11,7.22,27.11,21.67,0,15.38-9.19,23.07-27.57,23.07h-5.05v31.14c4.35.21,7.48.31,9.4.31,5.08,0,9.88-.49,14.38-1.48v-29.68Z"/>
    <path class="cls-1" d="m121,27.8v33.4c-4.09,0-6.9.76-8.43,2.29-1.53,1.53-2.5,4.54-2.91,9.05-1.35,14.96-7.15,25.53-17.4,31.69-5.44,3.21-13.15,2.47-23.14,2.47h-4.04v-27.47h1.32c4.66,0,7.99-1.9,9.98-3.84,1.99-1.94,3.15-5.35,3.46-10.21.41-7.92,1.15-16.29,2.21-19.5,1.06-3.21,3.22-6.39,6.49-9.55,5.7-5.54,13.59-8.31,23.69-8.31h8.78Z"/>
  </g>
</svg>
